<svg width="512" height="512" version="1.1" xmlns="http://www.w3.org/2000/svg" desc="Created with imagetracer.js version 1.2.6" ><path fill="rgb(254,227,170)" stroke="rgb(254,227,170)" stroke-width="1" opacity="1" d="M 84.5 64 L 87 64.5 L 83 69.5 L 77 84.5 L 76 99.5 Q 78.5 101 77 106.5 L 83 121.5 L 94.5 135 Q 103.3 142.7 116.5 146 L 132.5 147 L 145.5 144 L 159.5 136 L 159 137.5 Q 153.7 151.7 142.5 160 Q 133.5 167.5 120.5 171 L 115.5 172 L 96.5 172 Q 74.6 167.4 63 152.5 Q 49.9 139.1 50 112.5 L 52 101.5 L 58 87.5 L 71.5 72 L 84.5 64 Z " /><path fill="rgb(254,227,170)" stroke="rgb(254,227,170)" stroke-width="1" opacity="1" d="M 301.5 100 L 384 124 Q 380.3 146.1 365.5 158 Q 356.3 166.3 342.5 170 L 337.5 171 L 320.5 171 L 307.5 167 L 297 157.5 L 292 146.5 L 292 132.5 Q 297.5 118.5 300 101.5 L 301.5 100 Z " /><path fill="rgb(254,227,170)" stroke="rgb(254,227,170)" stroke-width="1" opacity="1" d="M 207.5 239 Q 218.6 251.6 237 256 L 232 272 L 230.5 272 L 209 251.5 Q 205.3 247.3 207.5 239 Z " /><path fill="rgb(254,227,170)" stroke="rgb(254,227,170)" stroke-width="1" opacity="1" d="M 371 421 L 389.5 421 L 395 424 L 410 461.5 L 397.5 462 L 385 447 Q 380.6 443.6 371 445 L 371 421 Z " /><path fill="rgb(254,227,170)" stroke="rgb(254,227,170)" stroke-width="1" opacity="1" d="M 78 436 L 148 436 L 148 464 L 73.5 464 L 73 462.5 L 78 436 Z " /><path fill="rgb(0,0,0)" stroke="rgb(0,0,0)" stroke-width="1" opacity="0" d="M 0 0 L 512 0 L 512 479.5 L 511 479.5 L 498 408.5 Q 495.5 399.4 488.5 395 L 479.5 391 L 462 391 L 462 273.5 L 461 272.5 L 461 265.5 L 458 249.5 Q 446.2 206.8 417.5 181 L 402.5 170 L 383 161.5 Q 391.3 152.8 396 140.5 L 404 112.5 L 406 94.5 L 404 84.5 L 400 75.5 L 390.5 64 L 381.5 58 L 358.5 51 L 339.5 46 L 326.5 46 Q 309.7 49.7 300 60.5 Q 292.9 67.9 290 79.5 L 277 129.5 L 276 144.5 L 280 158.5 Q 285 168.5 293.5 175 L 302.5 181 L 313.5 185 L 321.5 186 L 323 187.5 L 323 256.5 L 322 259 Q 291.1 249.8 262.5 237 L 253.5 236 L 245 240 Q 246.3 243.3 241.5 242 L 227.5 237 L 210.5 221 L 202.5 219 Q 196.8 220.3 194 224.5 L 192 233.5 L 192 248.5 L 196 259.5 L 216.5 280 L 232.5 294 L 240.5 296 L 322 327.5 Q 322.5 332.5 318.5 333 L 316.5 334 L 222.5 334 Q 203.9 337.9 195 351.5 Q 189.9 357.9 188 367.5 Q 189.3 372.2 187 373.5 L 187 398 L 166.5 398 L 166 394.5 L 161.5 391 L 32.5 391 Q 22.3 393.8 17 401.5 L 13 412.5 L 12 422.5 L 0.5 480 L 0 0 Z M 204 3 L 199 9 L 200 15 L 205 18 Q 212 19 214 14 Q 215 7 213 5 L 210 3 L 204 3 Z M 161 26 L 156 32 L 157 38 L 163 41 Q 169 41 171 37 L 170 29 Q 168 25 161 26 Z M 102 44 L 81 49 L 61 61 Q 40 77 35 108 L 35 126 L 37 136 Q 42 153 53 165 Q 68 183 98 188 L 117 188 L 126 186 Q 142 181 154 171 L 169 153 L 177 134 L 179 123 L 178 112 Q 175 107 170 106 L 161 109 L 154 121 L 146 127 L 135 131 L 121 131 L 106 124 Q 96 116 92 103 L 92 89 L 98 75 Q 103 67 113 63 L 117 56 L 115 49 Q 112 43 102 44 Z M 197 64 L 195 65 L 192 68 L 191 72 L 192 75 L 198 79 L 202 79 L 205 77 L 207 73 L 206 68 Q 204 63 197 64 Z " /><path fill="rgb(0,0,0)" stroke="rgb(0,0,0)" stroke-width="1" opacity="0" d="M 0.5 490 Q 3.2 500.8 11.5 506 L 18.5 509 L 493.5 509 Q 503.3 506.3 508 498.5 L 511.5 490 L 512 512 L 0.5 512 L 0 511.5 L 0.5 490 Z " /><path fill="rgb(1,1,1)" stroke="rgb(1,1,1)" stroke-width="1" opacity="0.9921568627450981" d="M 203.5 3 L 209.5 3 L 213 5 Q 214.8 7.4 214 13.5 Q 212.4 18.9 204.5 18 L 200 14.5 L 199 8.5 L 203.5 3 Z " /><path fill="rgb(1,1,1)" stroke="rgb(1,1,1)" stroke-width="1" opacity="0.9921568627450981" d="M 160.5 26 Q 167.8 24.8 170 28.5 L 171 36.5 Q 168.9 40.9 162.5 41 L 157 37.5 L 156 31.5 L 160.5 26 Z " /><path fill="rgb(1,1,1)" stroke="rgb(1,1,1)" stroke-width="1" opacity="0.9921568627450981" d="M 101.5 44 Q 111.6 42.9 115 48.5 L 117 55.5 L 112.5 63 Q 103.1 66.6 98 74.5 L 92 88.5 L 92 102.5 Q 95.6 116.4 105.5 124 L 120.5 131 L 134.5 131 L 145.5 127 L 154 121 L 161 109 L 169.5 106 Q 175.3 107.3 178 111.5 L 179 122.5 L 177 133.5 L 169 152.5 L 153.5 171 Q 142.2 181.2 125.5 186 L 116.5 188 L 97.5 188 Q 68.4 183.1 53 164.5 Q 42.1 152.9 37 135.5 L 35 125.5 L 35 107.5 Q 40.3 76.8 60.5 61 L 80.5 49 L 101.5 44 Z M 86 63 L 70 73 Q 55 85 50 108 L 50 125 L 52 134 Q 57 147 66 157 Q 74 164 85 169 L 100 173 L 113 173 L 123 171 Q 135 167 144 160 Q 154 151 160 138 L 160 135 Q 150 143 136 146 L 120 146 L 112 144 L 97 136 Q 81 125 77 103 L 77 88 L 78 83 Q 81 71 88 64 L 86 63 Z " /><path fill="rgb(1,1,1)" stroke="rgb(1,1,1)" stroke-width="1" opacity="0.9921568627450981" d="M 326.5 46 L 339.5 46 L 372.5 55 Q 387.1 58.4 395 68.5 Q 405.5 79 406 99.5 L 405 100.5 L 404 112.5 L 396 140.5 Q 391.3 152.8 383 161.5 L 407.5 173 L 426 189.5 Q 451.4 216.1 460 259.5 L 461 272.5 L 462 273.5 L 462 391 L 479.5 391 Q 489.8 393.8 495 401.5 L 500 417.5 L 500 422.5 L 512 480.5 L 512 489.5 Q 508.9 500.4 500.5 506 L 493.5 509 L 18.5 509 Q 8.7 506.3 4 498.5 L 0 489.5 L 0 480.5 L 4 464.5 L 4 459.5 L 8 443.5 L 8 438.5 L 14 408.5 Q 16.4 399.4 23.5 395 L 32.5 391 L 161.5 391 L 166 394.5 L 167 398.5 L 162.5 405 L 160.5 406 L 34.5 406 L 30 409.5 L 26 424.5 L 26 429.5 L 17 471.5 L 15 487.5 L 19.5 493 L 21.5 494 L 490.5 494 L 496 489.5 L 497 482.5 L 493 466.5 L 493 461.5 L 489 445.5 L 484 414.5 L 479.5 407 L 477.5 406 L 462 406 L 462 413.5 L 458 427.5 Q 452.4 439.9 442.5 448 Q 435.3 454.5 425 457 Q 426.7 460.5 426 467.5 L 419.5 476 L 417.5 477 L 391.5 477 L 382 468.5 L 374.5 460 L 221.5 460 Q 207.4 456.6 199 447.5 Q 191.4 439.6 188 427.5 Q 189.5 422 187 420.5 L 187 373.5 L 189 363.5 L 193 354.5 L 204.5 342 Q 211.5 336 222.5 334 L 316.5 334 L 322 329.5 L 320.5 326 L 230.5 293 L 196 259.5 Q 190 250.5 192 233.5 Q 194.5 232 193 226.5 L 197.5 221 L 205.5 219 L 210.5 221 L 227.5 237 Q 234.9 241.5 245 242 Q 243.9 239.3 246.5 240 Q 250 235.5 258.5 236 L 322 259 L 323 256.5 L 323 187.5 L 321.5 186 L 313.5 185 L 302.5 181 Q 292.1 175.3 285 166.5 L 278 153.5 L 276 144.5 L 276 134.5 L 292 73.5 Q 296.2 62.7 304.5 56 L 318.5 48 L 326.5 46 Z M 328 61 L 314 68 Q 307 74 305 85 L 365 103 L 389 109 L 391 99 L 390 91 L 386 82 Q 382 74 374 71 L 338 61 L 328 61 Z M 302 99 L 299 104 L 291 135 L 292 149 L 298 160 L 309 168 L 325 172 L 334 172 L 348 169 L 357 165 L 370 155 L 377 146 L 382 136 L 385 124 L 302 99 Z M 368 175 Q 355 184 337 186 L 338 216 L 342 208 Q 349 197 365 194 Q 379 194 387 200 Q 396 206 399 220 L 399 232 L 393 249 L 389 252 Q 381 253 379 248 L 379 243 L 384 231 Q 386 221 382 217 Q 378 211 371 209 Q 361 209 357 213 L 352 220 L 332 274 L 330 276 L 326 277 L 257 251 L 254 255 L 244 282 L 332 315 Q 344 317 350 312 L 357 303 L 367 275 L 374 270 L 378 271 L 381 276 L 381 281 L 379 287 L 371 308 L 366 317 Q 357 330 337 330 L 334 339 Q 329 347 318 349 L 287 349 L 287 391 L 358 391 L 366 395 L 370 405 L 372 406 L 393 406 L 402 410 L 410 420 L 420 443 Q 429 442 434 436 Q 444 428 447 413 L 447 274 Q 444 272 446 266 L 438 237 Q 429 214 413 198 Q 403 187 390 180 Q 381 175 368 175 Z M 208 239 L 206 243 L 208 251 L 232 273 L 238 256 Q 220 251 208 239 Z M 225 349 L 215 353 Q 205 360 202 374 L 202 421 L 204 429 L 207 434 Q 213 442 224 445 L 355 445 L 355 445 L 355 406 L 255 406 L 249 402 L 250 394 L 254 391 L 272 391 L 272 349 L 225 349 Z M 370 420 L 370 445 Q 371 447 373 445 Q 380 444 384 447 L 393 459 L 398 463 L 410 463 L 410 460 L 397 427 Q 394 422 388 420 L 370 420 Z " /><path fill="rgb(1,1,1)" stroke="rgb(1,1,1)" stroke-width="1" opacity="0.9921568627450981" d="M 196.5 64 Q 204.1 62.9 206 67.5 L 207 72.5 L 205 77 L 201.5 79 L 197.5 79 L 192 74.5 L 191 71.5 L 192 67.5 L 194.5 65 L 196.5 64 Z " /><path fill="rgb(1,1,1)" stroke="rgb(1,1,1)" stroke-width="1" opacity="0.9921568627450981" d="M 367.5 340 Q 373.5 339 375.5 342 L 405 371.5 L 407 378.5 L 402.5 384 L 396.5 384 L 363 350.5 Q 361.8 343.3 365.5 341 L 367.5 340 Z " /><path fill="rgb(1,1,1)" stroke="rgb(1,1,1)" stroke-width="1" opacity="0.9921568627450981" d="M 74.5 420 L 152.5 420 L 160 424 L 163 429.5 L 164 434.5 L 164 465.5 L 163 470.5 L 157.5 477 L 153.5 479 L 67.5 479 L 60 473.5 Q 56.2 468.8 58 458.5 L 63 429.5 L 69.5 422 L 74.5 420 Z M 77 435 L 73 465 L 148 465 L 149 464 L 149 435 L 77 435 Z " /><path fill="rgb(152,143,203)" stroke="rgb(152,143,203)" stroke-width="1" opacity="1" d="M 330.5 61 L 339.5 62 L 372.5 71 L 384 79.5 L 390 91.5 L 390 102.5 L 388 109 L 305 85 Q 307.4 73.6 315.5 67 L 322.5 63 L 330.5 61 Z " /><path fill="rgb(152,143,203)" stroke="rgb(152,143,203)" stroke-width="1" opacity="1" d="M 377.5 177 Q 389.5 179 397.5 185 L 416 201.5 Q 437.4 225.1 445 262.5 L 446 279.5 L 447 280.5 L 447 408.5 L 445 418.5 L 441 426.5 L 431.5 437 Q 426.5 442.1 419 443 L 418 439.5 Q 425.3 432.8 429 422.5 L 432 410.5 L 432 277.5 L 431 276.5 L 430 261.5 L 426 244.5 L 419 226.5 Q 406.5 200.5 385.5 183 L 377.5 178 L 377.5 177 Z " /><path fill="rgb(152,143,203)" stroke="rgb(152,143,203)" stroke-width="1" opacity="1" d="M 364.5 210 L 372.5 210 L 380 214 L 384 222.5 L 384 228.5 L 378 245.5 L 383 252.5 L 383 254.5 L 377 270 Q 369.5 268.7 367 273.5 L 357 301.5 L 348.5 312 Q 344.4 315.9 335.5 315 L 337 312.5 L 342 303.5 L 367 236.5 Q 370.3 230.8 369 220.5 L 364.5 210 Z " /><path fill="rgb(152,143,203)" stroke="rgb(152,143,203)" stroke-width="1" opacity="1" d="M 392.5 249 L 391.5 251 L 392.5 249 Z " /><path fill="rgb(152,143,203)" stroke="rgb(152,143,203)" stroke-width="1" opacity="1" d="M 365.5 317 L 364.5 319 L 365.5 317 Z " /><path fill="rgb(152,143,203)" stroke="rgb(152,143,203)" stroke-width="1" opacity="1" d="M 361.5 321 L 360.5 323 L 361.5 321 Z " /><path fill="rgb(152,143,203)" stroke="rgb(152,143,203)" stroke-width="1" opacity="1" d="M 368.5 339 L 371 339.5 L 368.5 340 L 368.5 339 Z " /><path fill="rgb(152,143,203)" stroke="rgb(152,143,203)" stroke-width="1" opacity="1" d="M 287.5 349 L 288 389.5 L 287 389.5 L 287.5 349 Z " /><path fill="rgb(152,143,203)" stroke="rgb(152,143,203)" stroke-width="1" opacity="1" d="M 402.5 410 L 403.5 412 L 402.5 410 Z " /><path fill="rgb(172,166,213)" stroke="rgb(172,166,213)" stroke-width="1" opacity="1" d="M 366.5 176 Q 374.8 174.7 378.5 178 Q 391.5 186.5 401 198.5 Q 411.6 210.9 419 226.5 L 426 244.5 L 431 267.5 L 431 276.5 L 432 277.5 L 432 410.5 L 429 422.5 Q 425.4 432.4 418.5 439 L 410 418.5 L 402.5 410 L 390.5 405 L 371.5 405 L 370 403.5 L 369 398.5 L 362.5 392 L 355.5 390 L 288 390 L 288 349 L 320.5 349 Q 329.5 346.5 334 339.5 L 337 331 Q 356.9 330.3 366 317.5 L 374 301.5 L 382 279.5 L 382 276.5 L 378.5 271 Q 375.9 271.8 377 268.5 L 383 252 L 386.5 253 L 393 249.5 L 399 234.5 L 400 221.5 Q 397.5 207 387.5 200 L 374.5 194 L 361.5 194 Q 348.8 197.3 342 206.5 L 338.5 213 L 338 186 Q 355.7 184.9 366.5 176 Z M 369 339 L 364 341 L 362 345 L 363 352 L 398 385 L 404 384 Q 409 382 407 374 L 374 340 L 369 339 Z " /><path fill="rgb(172,166,213)" stroke="rgb(172,166,213)" stroke-width="1" opacity="1" d="M 363.5 210 L 369 220.5 L 369 230.5 L 342 303.5 L 334.5 315 L 245 282 L 256.5 252 L 317.5 275 L 323.5 277 L 328.5 277 L 333 273.5 L 352 221.5 L 357.5 213 L 363.5 210 Z " /><path fill="rgb(172,166,213)" stroke="rgb(172,166,213)" stroke-width="1" opacity="1" d="M 370.5 421 L 371 444.5 L 370 444.5 L 370.5 421 Z " /><path fill="rgb(130,123,140)" stroke="rgb(130,123,140)" stroke-width="1" opacity="0.996078431372549" d="M 327.5 61 L 330 61.5 L 327.5 62 L 327.5 61 Z " /><path fill="rgb(130,123,140)" stroke="rgb(130,123,140)" stroke-width="1" opacity="0.996078431372549" d="M 335.5 61 L 338 61.5 L 335.5 62 L 335.5 61 Z " /><path fill="rgb(130,123,140)" stroke="rgb(130,123,140)" stroke-width="1" opacity="0.996078431372549" d="M 317.5 65 L 316.5 67 L 317.5 65 Z " /><path fill="rgb(130,123,140)" stroke="rgb(130,123,140)" stroke-width="1" opacity="0.996078431372549" d="M 313.5 68 L 312.5 70 L 313.5 68 Z " /><path fill="rgb(130,123,140)" stroke="rgb(130,123,140)" stroke-width="1" opacity="0.996078431372549" d="M 310.5 72 L 309.5 74 L 310.5 72 Z " /><path fill="rgb(130,123,140)" stroke="rgb(130,123,140)" stroke-width="1" opacity="0.996078431372549" d="M 69.5 73 L 68.5 75 L 69.5 73 Z " /><path fill="rgb(130,123,140)" stroke="rgb(130,123,140)" stroke-width="1" opacity="0.996078431372549" d="M 377.5 73 L 378.5 75 L 377.5 73 Z " /><path fill="rgb(130,123,140)" stroke="rgb(130,123,140)" stroke-width="1" opacity="0.996078431372549" d="M 65.5 77 L 63.5 80 L 65.5 77 Z " /><path fill="rgb(130,123,140)" stroke="rgb(130,123,140)" stroke-width="1" opacity="0.996078431372549" d="M 384.5 80 L 385.5 82 L 384.5 80 Z " /><path fill="rgb(130,123,140)" stroke="rgb(130,123,140)" stroke-width="1" opacity="0.996078431372549" d="M 390.5 96 L 391 98.5 L 390 98.5 L 390.5 96 Z " /><path fill="rgb(130,123,140)" stroke="rgb(130,123,140)" stroke-width="1" opacity="0.996078431372549" d="M 301.5 99 L 300.5 101 L 301.5 99 Z " /><path fill="rgb(130,123,140)" stroke="rgb(130,123,140)" stroke-width="1" opacity="0.996078431372549" d="M 86.5 125 L 87.5 127 L 86.5 125 Z " /><path fill="rgb(130,123,140)" stroke="rgb(130,123,140)" stroke-width="1" opacity="0.996078431372549" d="M 291.5 134 L 292 136.5 L 291 136.5 L 291.5 134 Z " /><path fill="rgb(130,123,140)" stroke="rgb(130,123,140)" stroke-width="1" opacity="0.996078431372549" d="M 126.5 146 L 129 146.5 L 126.5 147 L 126.5 146 Z " /><path fill="rgb(130,123,140)" stroke="rgb(130,123,140)" stroke-width="1" opacity="0.996078431372549" d="M 150.5 152 L 149.5 154 L 150.5 152 Z " /><path fill="rgb(130,123,140)" stroke="rgb(130,123,140)" stroke-width="1" opacity="0.996078431372549" d="M 66.5 156 L 67.5 158 L 66.5 156 Z " /><path fill="rgb(130,123,140)" stroke="rgb(130,123,140)" stroke-width="1" opacity="0.996078431372549" d="M 144.5 158 L 143.5 160 L 144.5 158 Z " /><path fill="rgb(130,123,140)" stroke="rgb(130,123,140)" stroke-width="1" opacity="0.996078431372549" d="M 298.5 159 L 302.5 164 L 298.5 159 Z " /><path fill="rgb(130,123,140)" stroke="rgb(130,123,140)" stroke-width="1" opacity="0.996078431372549" d="M 324.5 171 L 334 171.5 L 324.5 172 L 324.5 171 Z " /><path fill="rgb(130,123,140)" stroke="rgb(130,123,140)" stroke-width="1" opacity="0.996078431372549" d="M 99.5 172 L 102 172.5 L 99.5 173 L 99.5 172 Z " /><path fill="rgb(130,123,140)" stroke="rgb(130,123,140)" stroke-width="1" opacity="0.996078431372549" d="M 110.5 172 L 113 172.5 L 110.5 173 L 110.5 172 Z " /><path fill="rgb(130,123,140)" stroke="rgb(130,123,140)" stroke-width="1" opacity="0.996078431372549" d="M 367.5 175 L 372 175.5 L 367.5 176 L 367.5 175 Z " /><path fill="rgb(130,123,140)" stroke="rgb(130,123,140)" stroke-width="1" opacity="0.996078431372549" d="M 393.5 182 L 394.5 184 L 393.5 182 Z " /><path fill="rgb(130,123,140)" stroke="rgb(130,123,140)" stroke-width="1" opacity="0.996078431372549" d="M 337.5 186 L 338 212.5 L 339 213.5 L 337.5 216 L 337.5 186 Z " /><path fill="rgb(130,123,140)" stroke="rgb(130,123,140)" stroke-width="1" opacity="0.996078431372549" d="M 402.5 188 L 404.5 191 L 402.5 188 Z " /><path fill="rgb(130,123,140)" stroke="rgb(130,123,140)" stroke-width="1" opacity="0.996078431372549" d="M 371.5 194 L 374 194.5 L 371.5 195 L 371.5 194 Z " /><path fill="rgb(130,123,140)" stroke="rgb(130,123,140)" stroke-width="1" opacity="0.996078431372549" d="M 409.5 194 L 412.5 198 L 409.5 194 Z " /><path fill="rgb(130,123,140)" stroke="rgb(130,123,140)" stroke-width="1" opacity="0.996078431372549" d="M 347.5 201 L 343.5 206 L 347.5 201 Z " /><path fill="rgb(130,123,140)" stroke="rgb(130,123,140)" stroke-width="1" opacity="0.996078431372549" d="M 388.5 201 L 392.5 206 L 388.5 201 Z " /><path fill="rgb(130,123,140)" stroke="rgb(130,123,140)" stroke-width="1" opacity="0.996078431372549" d="M 416.5 202 L 419.5 206 L 416.5 202 Z " /><path fill="rgb(130,123,140)" stroke="rgb(130,123,140)" stroke-width="1" opacity="0.996078431372549" d="M 420.5 207 L 422.5 210 L 420.5 207 Z " /><path fill="rgb(130,123,140)" stroke="rgb(130,123,140)" stroke-width="1" opacity="0.996078431372549" d="M 365.5 209 L 371 209.5 L 365.5 210 L 365.5 209 Z " /><path fill="rgb(130,123,140)" stroke="rgb(130,123,140)" stroke-width="1" opacity="0.996078431372549" d="M 423.5 211 L 424.5 213 L 423.5 211 Z " /><path fill="rgb(130,123,140)" stroke="rgb(130,123,140)" stroke-width="1" opacity="0.996078431372549" d="M 377.5 212 L 378.5 214 L 377.5 212 Z " /><path fill="rgb(130,123,140)" stroke="rgb(130,123,140)" stroke-width="1" opacity="0.996078431372549" d="M 356.5 213 L 355.5 215 L 356.5 213 Z " /><path fill="rgb(130,123,140)" stroke="rgb(130,123,140)" stroke-width="1" opacity="0.996078431372549" d="M 425.5 214 L 426.5 216 L 425.5 214 Z " /><path fill="rgb(130,123,140)" stroke="rgb(130,123,140)" stroke-width="1" opacity="0.996078431372549" d="M 380.5 215 L 381.5 217 L 380.5 215 Z " /><path fill="rgb(130,123,140)" stroke="rgb(130,123,140)" stroke-width="1" opacity="0.996078431372549" d="M 427.5 217 L 428.5 219 L 427.5 217 Z " /><path fill="rgb(130,123,140)" stroke="rgb(130,123,140)" stroke-width="1" opacity="0.996078431372549" d="M 399.5 222 L 400 228.5 L 399 228.5 L 399.5 222 Z " /><path fill="rgb(130,123,140)" stroke="rgb(130,123,140)" stroke-width="1" opacity="0.996078431372549" d="M 206.5 242 L 207 245.5 L 206 245.5 L 206.5 242 Z " /><path fill="rgb(130,123,140)" stroke="rgb(130,123,140)" stroke-width="1" opacity="0.996078431372549" d="M 379.5 248 L 384 251.5 L 382.5 252 L 379.5 248 Z " /><path fill="rgb(130,123,140)" stroke="rgb(130,123,140)" stroke-width="1" opacity="0.996078431372549" d="M 256.5 251 L 258 251.5 L 255.5 253 L 256.5 251 Z " /><path fill="rgb(130,123,140)" stroke="rgb(130,123,140)" stroke-width="1" opacity="0.996078431372549" d="M 221.5 263 L 225.5 268 L 221.5 263 Z " /><path fill="rgb(130,123,140)" stroke="rgb(130,123,140)" stroke-width="1" opacity="0.996078431372549" d="M 445.5 265 L 446 268.5 L 445 268.5 L 445.5 265 Z " /><path fill="rgb(130,123,140)" stroke="rgb(130,123,140)" stroke-width="1" opacity="0.996078431372549" d="M 369.5 271 L 367.5 274 L 369.5 271 Z " /><path fill="rgb(130,123,140)" stroke="rgb(130,123,140)" stroke-width="1" opacity="0.996078431372549" d="M 446.5 273 L 447 279.5 L 446 279.5 L 446.5 273 Z " /><path fill="rgb(130,123,140)" stroke="rgb(130,123,140)" stroke-width="1" opacity="0.996078431372549" d="M 326.5 276 L 329 276.5 L 326.5 277 L 326.5 276 Z " /><path fill="rgb(130,123,140)" stroke="rgb(130,123,140)" stroke-width="1" opacity="0.996078431372549" d="M 381.5 276 L 382 279.5 L 381 279.5 L 381.5 276 Z " /><path fill="rgb(130,123,140)" stroke="rgb(130,123,140)" stroke-width="1" opacity="0.996078431372549" d="M 354.5 306 L 349.5 312 L 354.5 306 Z " /><path fill="rgb(130,123,140)" stroke="rgb(130,123,140)" stroke-width="1" opacity="0.996078431372549" d="M 367.5 314 L 366.5 316 L 367.5 314 Z " /><path fill="rgb(130,123,140)" stroke="rgb(130,123,140)" stroke-width="1" opacity="0.996078431372549" d="M 363.5 319 L 362.5 321 L 363.5 319 Z " /><path fill="rgb(130,123,140)" stroke="rgb(130,123,140)" stroke-width="1" opacity="0.996078431372549" d="M 358.5 323 L 357.5 325 L 358.5 323 Z " /><path fill="rgb(130,123,140)" stroke="rgb(130,123,140)" stroke-width="1" opacity="0.996078431372549" d="M 337.5 330 L 341 330.5 L 337.5 331 L 337.5 330 Z " /><path fill="rgb(130,123,140)" stroke="rgb(130,123,140)" stroke-width="1" opacity="0.996078431372549" d="M 333.5 339 L 328.5 345 L 333.5 339 Z " /><path fill="rgb(130,123,140)" stroke="rgb(130,123,140)" stroke-width="1" opacity="0.996078431372549" d="M 373.5 340 L 374.5 342 L 373.5 340 Z " /><path fill="rgb(130,123,140)" stroke="rgb(130,123,140)" stroke-width="1" opacity="0.996078431372549" d="M 362.5 345 L 363 349.5 L 362 349.5 L 362.5 345 Z " /><path fill="rgb(130,123,140)" stroke="rgb(130,123,140)" stroke-width="1" opacity="0.996078431372549" d="M 363.5 351 L 395.5 384 L 363.5 351 Z " /><path fill="rgb(130,123,140)" stroke="rgb(130,123,140)" stroke-width="1" opacity="0.996078431372549" d="M 214.5 353 L 213.5 355 L 214.5 353 Z " /><path fill="rgb(130,123,140)" stroke="rgb(130,123,140)" stroke-width="1" opacity="0.996078431372549" d="M 208.5 359 L 207.5 361 L 208.5 359 Z " /><path fill="rgb(130,123,140)" stroke="rgb(130,123,140)" stroke-width="1" opacity="0.996078431372549" d="M 202.5 373 L 203 420.5 L 202 420.5 L 202.5 373 Z " /><path fill="rgb(130,123,140)" stroke="rgb(130,123,140)" stroke-width="1" opacity="0.996078431372549" d="M 405.5 381 L 403.5 384 L 405.5 381 Z " /><path fill="rgb(130,123,140)" stroke="rgb(130,123,140)" stroke-width="1" opacity="0.996078431372549" d="M 398.5 384 L 401 384.5 L 398.5 385 L 398.5 384 Z " /><path fill="rgb(130,123,140)" stroke="rgb(130,123,140)" stroke-width="1" opacity="0.996078431372549" d="M 255.5 390 L 272 390.5 L 255.5 391 L 255.5 390 Z " /><path fill="rgb(130,123,140)" stroke="rgb(130,123,140)" stroke-width="1" opacity="0.996078431372549" d="M 287.5 390 L 355 390.5 L 287.5 391 L 287.5 390 Z " /><path fill="rgb(130,123,140)" stroke="rgb(130,123,140)" stroke-width="1" opacity="0.996078431372549" d="M 363.5 393 L 364.5 395 L 363.5 393 Z " /><path fill="rgb(130,123,140)" stroke="rgb(130,123,140)" stroke-width="1" opacity="0.996078431372549" d="M 248.5 396 L 249 400.5 L 248 400.5 L 248.5 396 Z " /><path fill="rgb(130,123,140)" stroke="rgb(130,123,140)" stroke-width="1" opacity="0.996078431372549" d="M 366.5 396 L 367.5 398 L 366.5 396 Z " /><path fill="rgb(130,123,140)" stroke="rgb(130,123,140)" stroke-width="1" opacity="0.996078431372549" d="M 167.5 398 L 187 398 L 187 420.5 L 190 433.5 L 200.5 449 Q 208.6 456.9 221.5 460 L 374.5 460 L 382 467.5 L 389.5 476 L 391.5 477 L 417.5 477 L 424 471.5 Q 427.2 468.2 426 460.5 L 425 457 Q 440.9 452.9 450 440.5 Q 461.3 428.1 462 406 L 477.5 406 L 482 409.5 L 485 419.5 L 485 424.5 L 489 440.5 L 489 445.5 L 493 461.5 L 497 486.5 L 492.5 493 L 490.5 494 L 21.5 494 L 16 489.5 L 15 482.5 L 26 429.5 L 28 414.5 L 32.5 407 L 34.5 406 L 160.5 406 L 166 401.5 L 167.5 398 Z M 75 420 L 70 422 L 63 430 L 58 459 Q 56 469 60 474 L 68 479 L 154 479 L 158 477 L 163 471 L 164 466 L 164 435 L 163 430 L 160 424 L 153 420 L 75 420 Z " /><path fill="rgb(130,123,140)" stroke="rgb(130,123,140)" stroke-width="1" opacity="0.996078431372549" d="M 249.5 402 L 251.5 405 L 249.5 402 Z " /><path fill="rgb(130,123,140)" stroke="rgb(130,123,140)" stroke-width="1" opacity="0.996078431372549" d="M 371.5 405 L 390 405.5 L 371.5 406 L 371.5 405 Z " /><path fill="rgb(130,123,140)" stroke="rgb(130,123,140)" stroke-width="1" opacity="0.996078431372549" d="M 446.5 409 L 447 412.5 L 446 412.5 L 446.5 409 Z " /><path fill="rgb(130,123,140)" stroke="rgb(130,123,140)" stroke-width="1" opacity="0.996078431372549" d="M 404.5 412 L 406.5 415 L 404.5 412 Z " /><path fill="rgb(130,123,140)" stroke="rgb(130,123,140)" stroke-width="1" opacity="0.996078431372549" d="M 370.5 420 L 388 420.5 L 370.5 421 L 370.5 420 Z " /><path fill="rgb(130,123,140)" stroke="rgb(130,123,140)" stroke-width="1" opacity="0.996078431372549" d="M 440.5 427 L 439.5 429 L 440.5 427 Z " /><path fill="rgb(130,123,140)" stroke="rgb(130,123,140)" stroke-width="1" opacity="0.996078431372549" d="M 437.5 431 L 433.5 436 L 437.5 431 Z " /><path fill="rgb(130,123,140)" stroke="rgb(130,123,140)" stroke-width="1" opacity="0.996078431372549" d="M 148.5 435 L 149 463.5 L 147.5 465 L 73.5 465 L 73.5 464 L 148 464 L 148.5 435 Z " /><path fill="rgb(130,123,140)" stroke="rgb(130,123,140)" stroke-width="1" opacity="0.996078431372549" d="M 430.5 437 L 429.5 439 L 430.5 437 Z " /><path fill="rgb(130,123,140)" stroke="rgb(130,123,140)" stroke-width="1" opacity="0.996078431372549" d="M 213.5 439 L 214.5 441 L 213.5 439 Z " /><path fill="rgb(130,123,140)" stroke="rgb(130,123,140)" stroke-width="1" opacity="0.996078431372549" d="M 427.5 439 L 426.5 441 L 427.5 439 Z " /><path fill="rgb(130,123,140)" stroke="rgb(130,123,140)" stroke-width="1" opacity="0.996078431372549" d="M 387.5 451 L 389.5 454 L 387.5 451 Z " /><path fill="rgb(130,123,140)" stroke="rgb(130,123,140)" stroke-width="1" opacity="0.996078431372549" d="M 393.5 458 L 395.5 461 L 393.5 458 Z " /><path fill="rgb(130,123,140)" stroke="rgb(130,123,140)" stroke-width="1" opacity="0.996078431372549" d="M 397.5 462 L 410 462.5 L 397.5 463 L 397.5 462 Z " /><path fill="rgb(193,141,130)" stroke="rgb(193,141,130)" stroke-width="1" opacity="1" d="M 73.5 70 L 72.5 72 L 73.5 70 Z " /><path fill="rgb(193,141,130)" stroke="rgb(193,141,130)" stroke-width="1" opacity="1" d="M 67.5 75 L 66.5 77 L 67.5 75 Z " /><path fill="rgb(193,141,130)" stroke="rgb(193,141,130)" stroke-width="1" opacity="1" d="M 76.5 91 L 77 99.5 L 76 99.5 L 76.5 91 Z " /><path fill="rgb(193,141,130)" stroke="rgb(193,141,130)" stroke-width="1" opacity="1" d="M 50.5 109 L 51 111.5 L 50 111.5 L 50.5 109 Z " /><path fill="rgb(193,141,130)" stroke="rgb(193,141,130)" stroke-width="1" opacity="1" d="M 88.5 128 L 94.5 135 L 88.5 128 Z " /><path fill="rgb(193,141,130)" stroke="rgb(193,141,130)" stroke-width="1" opacity="1" d="M 159.5 135 L 158.5 137 L 159.5 135 Z " /><path fill="rgb(193,141,130)" stroke="rgb(193,141,130)" stroke-width="1" opacity="1" d="M 291.5 137 L 292 141.5 L 291 141.5 L 291.5 137 Z " /><path fill="rgb(193,141,130)" stroke="rgb(193,141,130)" stroke-width="1" opacity="1" d="M 122.5 146 L 126 146.5 L 122.5 147 L 122.5 146 Z " /><path fill="rgb(193,141,130)" stroke="rgb(193,141,130)" stroke-width="1" opacity="1" d="M 129.5 146 L 133 146.5 L 129.5 147 L 129.5 146 Z " /><path fill="rgb(193,141,130)" stroke="rgb(193,141,130)" stroke-width="1" opacity="1" d="M 373.5 149 L 372.5 151 L 373.5 149 Z " /><path fill="rgb(193,141,130)" stroke="rgb(193,141,130)" stroke-width="1" opacity="1" d="M 148.5 154 L 145.5 158 L 148.5 154 Z " /><path fill="rgb(193,141,130)" stroke="rgb(193,141,130)" stroke-width="1" opacity="1" d="M 364.5 158 L 363.5 160 L 364.5 158 Z " /><path fill="rgb(193,141,130)" stroke="rgb(193,141,130)" stroke-width="1" opacity="1" d="M 71.5 160 L 72.5 162 L 71.5 160 Z " /><path fill="rgb(193,141,130)" stroke="rgb(193,141,130)" stroke-width="1" opacity="1" d="M 141.5 160 L 140.5 162 L 141.5 160 Z " /><path fill="rgb(193,141,130)" stroke="rgb(193,141,130)" stroke-width="1" opacity="1" d="M 102.5 172 L 110 172.5 L 102.5 173 L 102.5 172 Z " /><path fill="rgb(193,141,130)" stroke="rgb(193,141,130)" stroke-width="1" opacity="1" d="M 218.5 260 L 220.5 263 L 218.5 260 Z " /><path fill="rgb(193,141,130)" stroke="rgb(193,141,130)" stroke-width="1" opacity="1" d="M 226.5 349 L 272 349 L 272 390 L 255.5 390 L 249 394.5 L 248 400.5 L 251.5 405 L 253.5 406 L 355 406 L 355 444.5 L 354.5 445 L 225.5 445 Q 214.3 442.3 208 434.5 L 203 423.5 L 203 370.5 Q 205.4 360.4 212.5 355 L 221.5 350 L 226.5 349 Z " /><path fill="rgb(193,141,130)" stroke="rgb(193,141,130)" stroke-width="1" opacity="1" d="M 78.5 435 L 148 435.5 L 78 436 L 77.5 438 L 77 436.5 L 78.5 435 Z " /></svg>